<svg xmlns="http://www.w3.org/2000/svg" width="42" height="37" viewBox="0 0 42 37" fill="none"><path fill-rule="evenodd" clip-rule="evenodd" d="M10.5806 0C10.1224 0 9.68629 0.197055 9.38346 0.540947L0.398005 10.7448C-0.115341 11.3277 -0.134148 12.1957 0.353466 12.8003L19.3905 36.4062C19.6926 36.7808 20.1477 36.999 20.629 37C20.9956 37.0007 21.3475 36.8753 21.6286 36.6505C21.9498 36.4727 22.2091 36.1852 22.3465 35.8247L41.0592 12.8052C41.5538 12.1967 41.5328 11.319 41.0097 10.7348L31.872 0.530994C31.5694 0.193098 31.1372 0 30.6837 0H10.5806ZM24.0754 28.6402L36.468 13.3954H27.7145L24.0754 28.6402ZM27.5539 10.2051H36.2528L29.9709 3.1903H25.4599L27.5539 10.2051ZM22.1305 3.1903L24.2245 10.2051H17.1881L19.2821 3.1903H22.1305ZM24.4346 13.3954L20.7063 29.0139L16.978 13.3954H24.4346ZM5.12421 10.2051L11.3014 3.1903H15.9527L13.8587 10.2051H5.12421ZM4.93181 13.3954H13.6981L17.3839 28.836L4.93181 13.3954Z" fill="url(#paint0_linear_2566_1846)"></path><defs><linearGradient id="paint0_linear_2566_1846" x1="2.23385" y1="15.6523" x2="40.9422" y2="37.7519" gradientUnits="userSpaceOnUse"><stop stop-color="#E5BA5D"></stop><stop offset="0.23" stop-color="#FFFFD0"></stop><stop offset="0.41" stop-color="#E2B854"></stop><stop offset="0.59" stop-color="#F4C96C"></stop><stop offset="0.77" stop-color="#D09F26"></stop><stop offset="1" stop-color="#C2973B"></stop></linearGradient></defs></svg>