<svg xmlns="http://www.w3.org/2000/svg" width="26" height="20" viewBox="0 0 26 20" fill="none"><path d="M1.11328 14.5L7.30408 8.3092C7.5548 8.05848 7.85245 7.85959 8.18003 7.7239C8.50761 7.58822 8.85871 7.51838 9.21328 7.51838C9.56785 7.51838 9.91895 7.58822 10.2465 7.7239C10.5741 7.85959 10.8718 8.05848 11.1225 8.3092L17.3133 14.5M15.5133 12.7L17.2041 11.0092C17.4548 10.7585 17.7524 10.5596 18.08 10.4239C18.4076 10.2882 18.7587 10.2184 19.1133 10.2184C19.4679 10.2184 19.819 10.2882 20.1465 10.4239C20.4741 10.5596 20.7718 10.7585 21.0225 11.0092L24.5133 14.5M2.91328 19H22.7133C23.1907 19 23.6485 18.8104 23.9861 18.4728C24.3236 18.1352 24.5133 17.6774 24.5133 17.2V2.8C24.5133 2.32261 24.3236 1.86477 23.9861 1.52721C23.6485 1.18964 23.1907 1 22.7133 1H2.91328C2.43589 1 1.97805 1.18964 1.64049 1.52721C1.30292 1.86477 1.11328 2.32261 1.11328 2.8V17.2C1.11328 17.6774 1.30292 18.1352 1.64049 18.4728C1.97805 18.8104 2.43589 19 2.91328 19ZM15.5133 5.5H15.5229V5.5096H15.5133V5.5ZM15.9633 5.5C15.9633 5.61935 15.9159 5.73381 15.8315 5.8182C15.7471 5.90259 15.6326 5.95 15.5133 5.95C15.3939 5.95 15.2795 5.90259 15.1951 5.8182C15.1107 5.73381 15.0633 5.61935 15.0633 5.5C15.0633 5.38065 15.1107 5.26619 15.1951 5.1818C15.2795 5.09741 15.3939 5.05 15.5133 5.05C15.6326 5.05 15.7471 5.09741 15.8315 5.1818C15.9159 5.26619 15.9633 5.38065 15.9633 5.5Z" stroke="#E92548" stroke-width="1.2" stroke-linecap="round" stroke-linejoin="round"></path></svg>