<svg xmlns="http://www.w3.org/2000/svg" width="29" height="25" viewBox="0 0 29 25" fill="none"><path d="M9.71429 21.8095L1.5 17.9762L4.78571 14.1429M9.71429 21.8095L9.16667 16.3333M9.71429 21.8095L15.6035 16.2303M17.381 8.66667L20.119 11.9524L18.7204 13.2775M17.381 8.66667L9.16667 16.3333M17.381 8.66667L13 7.02381L4.78571 14.1429M9.16667 16.3333L4.78571 14.1429M13 19.0714L20.6667 24M20.6667 24L27.2381 18.5238L23.9524 16.3333M20.6667 24V19.0714M23.9524 16.3333L20.6667 19.0714M23.9524 16.3333L18.7204 13.2775M20.6667 19.0714L15.6035 16.2303M15.6035 16.2303L18.7204 13.2775" stroke="#E92548" stroke-width="1.09524"></path><path d="M21.7619 7.57143V8.66666M21.7619 9.7619V8.66666M21.7619 8.66666H20.119H23.4048" stroke="#E92548" stroke-width="0.97995" stroke-linecap="round" stroke-linejoin="round"></path><path d="M8.61905 3.19048V4.83333M8.61905 6.47619V4.83333M8.61905 4.83333H6.9762H10.2619" stroke="#E92548" stroke-width="0.97995" stroke-linecap="round" stroke-linejoin="round"></path><path d="M16.2857 1V3.19048M16.2857 5.38095V3.19048M16.2857 3.19048H14.6429H17.9286" stroke="#E92548" stroke-width="0.97995" stroke-linecap="round" stroke-linejoin="round"></path></svg>