<svg xmlns="http://www.w3.org/2000/svg" width="41" height="41" viewBox="0 0 41 41" fill="none"><path d="M16.3503 27.9076L14.8077 33.3077L13.2651 27.9076C12.8664 26.5127 12.1188 25.2424 11.093 24.2166C10.0672 23.1908 8.79688 22.4432 7.402 22.0445L2 20.5L7.4001 18.9574C8.79498 18.5587 10.0653 17.8111 11.0911 16.7853C12.1169 15.7595 12.8645 14.4892 13.2632 13.0943L14.8077 7.69231L16.3503 13.0924C16.749 14.4873 17.4965 15.7576 18.5224 16.7834C19.5482 17.8092 20.8185 18.5568 22.2134 18.9555L27.6154 20.5L22.2153 22.0426C20.8204 22.4413 19.5501 23.1889 18.5243 24.2147C17.4984 25.2405 16.7509 26.5108 16.3522 27.9057L16.3503 27.9076ZM32.3761 14.2669L31.8846 16.2308L31.3932 14.2669C31.1119 13.141 30.5299 12.1126 29.7094 11.2918C28.8889 10.471 27.8608 9.88858 26.735 9.60682L24.7692 9.11538L26.735 8.62395C27.8608 8.34219 28.8889 7.75978 29.7094 6.93897C30.5299 6.11816 31.1119 5.08981 31.3932 3.96385L31.8846 2L32.3761 3.96385C32.6575 5.09004 33.2398 6.11855 34.0606 6.93938C34.8814 7.76022 35.91 8.3425 37.0362 8.62395L39 9.11538L37.0362 9.60682C35.91 9.88827 34.8814 10.4706 34.0606 11.2914C33.2398 12.1122 32.6575 13.1407 32.3761 14.2669ZM29.786 36.7553L29.0385 39L28.2909 36.7553C28.0813 36.1266 27.7282 35.5553 27.2595 35.0866C26.7909 34.618 26.2196 34.2649 25.5908 34.0553L23.3462 33.3077L25.5908 32.5601C26.2196 32.3505 26.7909 31.9974 27.2595 31.5288C27.7282 31.0601 28.0813 30.4888 28.2909 29.8601L29.0385 27.6154L29.786 29.8601C29.9956 30.4888 30.3487 31.0601 30.8174 31.5288C31.286 31.9974 31.8573 32.3505 32.4861 32.5601L34.7308 33.3077L32.4861 34.0553C31.8573 34.2649 31.286 34.618 30.8174 35.0866C30.3487 35.5553 29.9956 36.1266 29.786 36.7553Z" stroke="url(#paint0_linear_2566_1837)" stroke-width="3.76271" stroke-linecap="round" stroke-linejoin="round"></path><defs><linearGradient id="paint0_linear_2566_1837" x1="2.62712" y1="14.5424" x2="46.5254" y2="49.661" gradientUnits="userSpaceOnUse"><stop stop-color="#E5BA5D"></stop><stop offset="0.23" stop-color="#FFFFD0"></stop><stop offset="0.41" stop-color="#E2B854"></stop><stop offset="0.59" stop-color="#F4C96C"></stop><stop offset="0.77" stop-color="#D09F26"></stop><stop offset="1" stop-color="#C2973B"></stop></linearGradient></defs></svg>