<svg xmlns="http://www.w3.org/2000/svg" width="188" height="86" viewBox="0 0 188 86" fill="none"><path d="M148.986 60.8835C148.986 61.1444 148.944 61.3899 148.86 61.6189C148.776 61.8484 148.649 62.0455 148.478 62.2107C148.307 62.376 148.092 62.5064 147.831 62.6022C147.571 62.6979 147.262 62.7458 146.904 62.7458C146.641 62.7458 146.397 62.7209 146.173 62.6716C145.949 62.6224 145.744 62.5557 145.556 62.4712C145.369 62.3872 145.2 62.2915 145.048 62.184C144.897 62.0765 144.765 61.9681 144.654 61.8578L145.317 61.1092C145.546 61.3124 145.787 61.4692 146.039 61.579C146.291 61.6893 146.576 61.7442 146.896 61.7442C147.097 61.7442 147.265 61.7212 147.399 61.6748C147.534 61.6283 147.642 61.5692 147.723 61.4964C147.804 61.4241 147.86 61.3397 147.891 61.2439C147.922 61.1482 147.937 61.0538 147.937 60.9609C147.937 60.7811 147.891 60.6333 147.798 60.5169C147.706 60.401 147.583 60.3038 147.429 60.2255C147.275 60.1471 147.1 60.0804 146.904 60.025C146.708 59.9701 146.508 59.9133 146.304 59.8551C146.099 59.7974 145.899 59.7289 145.703 59.6505C145.507 59.5721 145.333 59.4722 145.179 59.3501C145.025 59.2281 144.902 59.076 144.809 58.893C144.717 58.7104 144.671 58.4823 144.671 58.2097C144.671 57.9543 144.716 57.7192 144.805 57.5047C144.895 57.2902 145.025 57.1058 145.195 56.9518C145.366 56.7984 145.579 56.6777 145.833 56.5904C146.088 56.5036 146.38 56.46 146.711 56.46C147.164 56.46 147.574 56.5369 147.941 56.6904C148.308 56.8443 148.626 57.0401 148.894 57.278L148.281 58.0703C148.012 57.8497 147.75 57.6929 147.496 57.6005C147.241 57.5075 146.982 57.4611 146.719 57.4611C146.367 57.4611 146.112 57.5249 145.955 57.6525C145.799 57.7802 145.72 57.937 145.72 58.1228C145.72 58.274 145.766 58.3983 145.859 58.4969C145.951 58.5954 146.074 58.6785 146.228 58.7452C146.382 58.8118 146.557 58.87 146.753 58.9193C146.949 58.9686 147.149 59.024 147.353 59.0845C147.557 59.1455 147.758 59.2183 147.954 59.3023C148.15 59.3863 148.324 59.4966 148.478 59.6331C148.632 59.7697 148.755 59.9392 148.848 60.1424C148.94 60.3456 148.986 60.592 148.986 60.8821L148.986 60.8835Z" fill="white"></path><path d="M149.935 56.5576H150.984V62.6505H149.935V56.5576Z" fill="white"></path><path d="M153.109 58.4899V62.6505H152.059V56.5576H153.193L155.435 60.7183V56.5576H156.485V62.6505H155.351L153.109 58.4899Z" fill="white"></path><path d="M157.475 59.6039C157.475 59.128 157.543 58.6957 157.68 58.3071C157.817 57.9185 158.015 57.5862 158.272 57.3103C158.53 57.0348 158.84 56.8217 159.204 56.6706C159.568 56.5199 159.979 56.4443 160.438 56.4443C160.965 56.4443 161.425 56.5415 161.82 56.7358C162.215 56.9301 162.546 57.2014 162.815 57.5496L161.958 58.1588C161.779 57.9326 161.565 57.7571 161.316 57.6322C161.067 57.5074 160.774 57.445 160.438 57.445C160.136 57.445 159.866 57.4956 159.628 57.5975C159.39 57.6989 159.19 57.8425 159.028 58.0283C158.865 58.2142 158.741 58.4404 158.654 58.7075C158.567 58.9745 158.524 59.273 158.524 59.6039C158.524 59.9348 158.568 60.2338 158.654 60.5003C158.741 60.7674 158.866 60.9936 159.028 61.1795C159.19 61.3653 159.39 61.5089 159.628 61.6103C159.866 61.7122 160.136 61.7629 160.438 61.7629C160.774 61.7629 161.067 61.7004 161.316 61.5756C161.565 61.4508 161.779 61.2752 161.958 61.049L162.815 61.6582C162.546 62.0064 162.215 62.2777 161.82 62.472C161.425 62.6663 160.965 62.7635 160.438 62.7635C159.979 62.7635 159.568 62.6879 159.204 62.5373C158.84 62.3866 158.53 62.1731 158.272 61.8976C158.014 61.6221 157.817 61.2898 157.68 60.9007C157.543 60.5121 157.475 60.0798 157.475 59.6039Z" fill="white"></path><path d="M163.763 56.5576H167.76V57.5587H164.813V58.9428H167.24V59.9439H164.813V61.6584H167.76V62.6595L163.763 62.6505V56.5576Z" fill="white"></path><path d="M171.967 58.0365C171.771 58.1585 171.533 58.2336 171.253 58.2627V57.3662C171.348 57.3432 171.442 57.3113 171.534 57.2705C171.627 57.2301 171.714 57.179 171.795 57.118C171.876 57.057 171.949 56.9804 172.013 56.8875C172.077 56.7946 172.129 56.6843 172.168 56.5566H173.016V62.6496H171.967V58.0365Z" fill="white"></path><path d="M176.047 56.4443C176.535 56.4443 176.919 56.5387 177.202 56.7273C177.485 56.916 177.697 57.1526 177.84 57.4365C177.983 57.7209 178.074 58.0241 178.113 58.3461C178.152 58.6681 178.172 58.9656 178.172 59.2383C178.172 59.9057 178.109 60.4642 177.983 60.9138C177.857 61.3635 177.688 61.722 177.475 61.9886C177.262 62.2557 177.02 62.4457 176.749 62.5589C176.477 62.672 176.193 62.7288 175.897 62.7288C175.516 62.7288 175.191 62.6574 174.923 62.5157C174.654 62.3735 174.43 62.2008 174.251 61.998L174.872 61.232C174.917 61.2785 174.969 61.3306 175.027 61.3888C175.086 61.447 175.155 61.5005 175.233 61.5498C175.311 61.5991 175.402 61.6413 175.506 61.676C175.61 61.7108 175.728 61.7281 175.863 61.7281C176.086 61.7281 176.274 61.6774 176.425 61.5756C176.576 61.4742 176.699 61.3405 176.795 61.1752C176.89 61.01 176.961 60.8186 177.009 60.6008C177.056 60.383 177.086 60.1582 177.097 59.9263C176.968 60.1122 176.783 60.2629 176.543 60.3788C176.302 60.4947 176.031 60.5529 175.728 60.5529C175.459 60.5529 175.216 60.5036 174.998 60.4051C174.779 60.3065 174.595 60.1685 174.443 59.9916C174.292 59.8146 174.175 59.5997 174.091 59.3477C174.007 59.0952 173.965 58.8154 173.965 58.5075C173.965 58.1997 174.014 57.9185 174.112 57.6632C174.21 57.4079 174.35 57.1901 174.532 57.0104C174.714 56.8306 174.932 56.6912 175.187 56.5926C175.441 56.4941 175.728 56.4448 176.047 56.4448V56.4443ZM177.089 58.4986C177.089 58.1621 176.996 57.9026 176.812 57.7195C176.627 57.537 176.375 57.4454 176.056 57.4454C175.737 57.4454 175.484 57.537 175.296 57.7195C175.109 57.9021 175.015 58.1621 175.015 58.4986C175.015 58.8351 175.109 59.1022 175.296 59.2819C175.484 59.4617 175.737 59.5518 176.056 59.5518C176.375 59.5518 176.627 59.4617 176.812 59.2819C176.996 59.1022 177.089 58.8412 177.089 58.4986Z" fill="white"></path><path d="M181.606 61.5016H178.994V60.7094L181.807 56.5576H182.655V60.5005H183.067V61.5016H182.655V62.6505H181.606V61.5016ZM181.606 60.5005V58.5945L180.321 60.5005H181.606Z" fill="white"></path><path d="M186.502 61.5016H183.89V60.7094L186.703 56.5576H187.551V60.5005H187.963V61.5016H187.551V62.6505H186.502V61.5016ZM186.502 60.5005V58.5945L185.217 60.5005H186.502Z" fill="white"></path><path d="M0.00260925 77.6004C0.00260925 76.4613 0.166507 75.4259 0.495209 74.4948C0.823458 73.5641 1.29614 72.7685 1.91279 72.1082C2.52899 71.4483 3.27333 70.9377 4.14488 70.5763C5.01599 70.2149 6.00119 70.0342 7.10048 70.0342C8.36051 70.0342 9.46297 70.267 10.4079 70.7326C11.3528 71.1981 12.1469 71.8477 12.7907 72.6812L10.7397 74.1404C10.3105 73.5983 9.79801 73.1783 9.20173 72.8793C8.60499 72.5808 7.90503 72.4311 7.10048 72.4311C6.37652 72.4311 5.72953 72.5531 5.15997 72.7958C4.58994 73.0389 4.11093 73.3829 3.72246 73.8274C3.33354 74.2723 3.03518 74.8144 2.82781 75.4531C2.62 76.0924 2.51632 76.8081 2.51632 77.5999C2.51632 78.3917 2.62 79.1079 2.82781 79.7466C3.03563 80.3859 3.33354 80.928 3.72246 81.3724C4.11093 81.8174 4.5904 82.1614 5.15997 82.404C5.72953 82.6471 6.37652 82.7687 7.10048 82.7687C7.70356 82.7687 8.2532 82.6889 8.74942 82.5289C9.24519 82.3693 9.68075 82.1431 10.0565 81.8516V79.3505H7.10094V76.9536H12.5702V82.7898C12.0206 83.4985 11.2867 84.0716 10.3685 84.5095C9.45029 84.9474 8.36096 85.1661 7.10094 85.1661C6.00164 85.1661 5.01644 84.9854 4.14534 84.624C3.27378 84.2626 2.5299 83.752 1.91324 83.0921C1.29659 82.4322 0.823911 81.6367 0.495662 80.7055C0.16696 79.7753 0.00260925 78.7399 0.00260925 77.6004Z" fill="white"></path><path d="M14.9618 77.6004C14.9618 76.4613 15.1257 75.4259 15.4544 74.4948C15.7826 73.5641 16.2553 72.7685 16.872 72.1082C17.4882 71.4483 18.2325 70.9377 19.1041 70.5763C19.9752 70.2149 20.9604 70.0342 22.0597 70.0342C23.159 70.0342 24.1473 70.2149 25.0257 70.5763C25.9036 70.9377 26.6511 71.4483 27.2677 72.1082C27.8839 72.7685 28.3566 73.5641 28.6853 74.4948C29.0136 75.4259 29.1779 76.4613 29.1779 77.6004C29.1779 78.7394 29.0136 79.7753 28.6853 80.706C28.3566 81.6371 27.8844 82.4359 27.2677 83.1029C26.6511 83.7698 25.9036 84.2842 25.0257 84.6451C24.1478 85.0065 23.159 85.1872 22.0597 85.1872C20.9604 85.1872 19.9752 85.0065 19.1041 84.6451C18.2325 84.2837 17.4886 83.7698 16.872 83.1029C16.2553 82.4359 15.7826 81.6371 15.4544 80.706C15.1257 79.7753 14.9618 78.7399 14.9618 77.6004ZM17.475 77.6004C17.475 78.3926 17.5787 79.1116 17.7865 79.7574C17.9944 80.4037 18.2923 80.9491 18.6812 81.3935C19.0697 81.8385 19.5491 82.1825 20.1187 82.4251C20.6883 82.6683 21.3353 82.7898 22.0592 82.7898C22.7832 82.7898 23.4297 82.6683 23.9997 82.4251C24.5693 82.182 25.0519 81.8385 25.4476 81.3935C25.8429 80.9491 26.1444 80.4032 26.3527 79.7574C26.5605 79.1112 26.6642 78.3921 26.6642 77.6004C26.6642 76.8086 26.5601 76.0929 26.3527 75.4536C26.1449 74.8149 25.8429 74.2728 25.4476 73.8278C25.0519 73.3834 24.5698 73.0393 23.9997 72.7962C23.4297 72.5531 22.7832 72.4316 22.0592 72.4316C21.3353 72.4316 20.6883 72.5536 20.1187 72.7962C19.5487 73.0393 19.0697 73.3834 18.6812 73.8278C18.2923 74.2728 17.9939 74.8149 17.7865 75.4536C17.5787 76.0929 17.475 76.8086 17.475 77.6004Z" fill="white"></path><path d="M31.5497 69.9805H34.063V82.7647H40.8593V85.1616H31.5497V69.9805Z" fill="white"></path><path d="M43.1315 70.0186H48.46C49.5054 70.0186 50.4471 70.1927 51.2852 70.5395C52.1228 70.8868 52.8336 71.3731 53.4163 71.9987C53.9995 72.6238 54.4486 73.3814 54.7633 74.2707C55.0779 75.1601 55.2359 76.463 55.2359 77.5467C55.2359 78.6304 55.0784 79.9455 54.7633 80.8555C54.4481 81.7656 53.999 82.5405 53.4163 83.1797C52.8332 83.8189 52.1228 84.3122 51.2852 84.6595C50.4471 85.0068 49.5058 85.1805 48.46 85.1805H43.1315V70.019V70.0186ZM48.2186 82.7831C48.929 82.7831 49.5624 82.6686 50.1189 82.4391C50.6749 82.2096 51.1444 81.8801 51.5265 81.4488C51.9086 81.0184 52.2034 80.504 52.4112 79.9065C52.619 79.3091 52.7227 78.3939 52.7227 77.6711C52.7227 76.9483 52.6185 75.9238 52.4112 75.3122C52.2034 74.7011 51.9086 74.1797 51.5265 73.7488C51.1444 73.3185 50.6753 72.988 50.1189 72.7585C49.5624 72.5295 48.929 72.4145 48.2186 72.4145H45.6452V82.7822H48.2186V82.7831Z" fill="white"></path><path d="M72.0249 83.9095C70.9392 84.743 69.6991 85.1603 68.3051 85.1603C67.6884 85.1603 67.0953 85.0697 66.5257 84.8895C65.9557 84.7092 65.4531 84.4413 65.0176 84.0869C64.582 83.7326 64.2366 83.2914 63.9821 82.7634C63.7272 82.2354 63.6 81.6173 63.6 80.9086C63.6 80.3805 63.6702 79.9046 63.811 79.4808C63.9518 79.057 64.1429 78.675 64.3842 78.3342C64.6255 77.994 64.8999 77.6814 65.2087 77.3965C65.517 77.1121 65.8384 76.8511 66.1739 76.6151C65.8253 76.1288 65.5405 75.6323 65.3196 75.1249C65.0982 74.618 64.9877 74.0515 64.9877 73.4264C64.9877 72.9678 65.0547 72.5267 65.1887 72.1029C65.3228 71.679 65.5269 71.3073 65.8018 70.9877C66.0761 70.6681 66.4216 70.4146 66.8372 70.2269C67.2524 70.0392 67.7423 69.9453 68.3051 69.9453C68.7877 69.9453 69.24 70.0181 69.6624 70.164C70.0848 70.31 70.4566 70.5287 70.7785 70.8206C71.1004 71.1125 71.3517 71.4739 71.5323 71.9043C71.7134 72.3352 71.804 72.8284 71.804 73.3841C71.804 73.8291 71.7469 74.2355 71.6328 74.6035C71.5187 74.9719 71.3616 75.3089 71.1601 75.6144C70.9591 75.9204 70.7246 76.1978 70.4566 76.448C70.1881 76.6981 69.9069 76.9347 69.6122 77.1567L72.0652 80.2416C72.4537 79.5193 72.7756 78.6506 73.0305 77.6363L75.2825 78.2615C75.0946 79.0397 74.8632 79.7554 74.5889 80.4082C74.3141 81.0616 73.9958 81.652 73.6336 82.18L75.7248 84.8064H72.7489L72.0249 83.91V83.9095ZM67.7622 78.6154C67.735 78.5877 67.7187 78.567 67.7119 78.5529C67.7052 78.5393 67.6884 78.5182 67.6617 78.4905C67.1922 78.8242 66.8001 79.1786 66.4854 79.5536C66.1703 79.9286 66.0128 80.3805 66.0128 80.9086C66.0128 81.4366 66.197 81.8604 66.5656 82.2218C66.9341 82.5831 67.5204 82.7638 68.325 82.7638C68.7402 82.7638 69.1322 82.7085 69.5012 82.5972C69.8698 82.486 70.2216 82.3128 70.5566 82.0763L67.7618 78.6163L67.7622 78.6154ZM68.124 75.2803C68.4993 75.0024 68.804 74.7142 69.039 74.4153C69.2735 74.1168 69.3908 73.7728 69.3908 73.3837C69.3908 73.0364 69.3002 72.7759 69.1191 72.6022C68.938 72.4286 68.6999 72.3417 68.4051 72.3417C68.1104 72.3417 67.8523 72.4389 67.6712 72.6337C67.4901 72.8284 67.3995 73.1063 67.3995 73.4672C67.3995 73.7868 67.4666 74.0924 67.6006 74.3843C67.7346 74.6762 67.9089 74.9752 68.1235 75.2807L68.124 75.2803Z" fill="white"></path><path d="M84.3907 69.9805H89.7188C90.7642 69.9805 91.7059 70.1546 92.544 70.5014C93.3816 70.8487 94.0924 71.335 94.6756 71.9606C95.2587 72.5858 95.7074 73.3433 96.0225 74.2327C96.3372 75.1221 96.4952 76.294 96.4952 77.3782C96.4952 78.4623 96.3377 79.9323 96.0225 80.8419C95.7074 81.7519 95.2587 82.5268 94.6756 83.166C94.0924 83.8053 93.382 84.2985 92.544 84.6458C91.7059 84.9931 90.7647 85.1668 89.7188 85.1668H84.3907V69.9805ZM89.4779 82.7694C90.1883 82.7694 90.8217 82.6549 91.3781 82.4254C91.9341 82.1959 92.4036 81.8664 92.7858 81.4351C93.1679 81.0047 93.4626 80.4903 93.6704 79.8929C93.8783 79.2954 93.982 78.2248 93.982 77.5025C93.982 76.7802 93.8778 75.8861 93.6704 75.2741C93.4626 74.663 93.1679 74.1416 92.7858 73.7108C92.4036 73.2804 91.9346 72.95 91.3781 72.7205C90.8217 72.4914 90.1883 72.3764 89.4779 72.3764H86.9044V82.7685H89.4779V82.7694Z" fill="white"></path><path d="M98.867 69.9805H101.38V85.1565H98.867V69.9805Z" fill="white"></path><path d="M108.277 69.9805H110.911L115.736 85.1668H113.102L111.936 81.3107H107.251L106.085 85.1668H103.451L108.276 69.9805H108.277ZM111.192 78.9138L109.583 73.0236L107.975 78.9138H111.192Z" fill="white"></path><path d="M117.505 69.9805H120.421L124.523 81.6782L128.604 69.9805H131.52V85.1593H129.006V76.2175L125.749 85.0758L125.769 85.1593H123.256L123.276 85.0758L120.019 76.2175V85.1593H117.505V69.9805Z" fill="white"></path><path d="M133.892 77.6004C133.892 76.4613 134.056 75.4259 134.385 74.4948C134.713 73.5641 135.186 72.7685 135.803 72.1082C136.419 71.4483 137.163 70.9377 138.034 70.5763C138.905 70.2149 139.891 70.0342 140.99 70.0342C142.089 70.0342 143.078 70.2149 143.955 70.5763C144.833 70.9377 145.581 71.4483 146.197 72.1082C146.814 72.7685 147.286 73.5641 147.615 74.4948C147.943 75.4259 148.108 76.4613 148.108 77.6004C148.108 78.7394 147.943 79.7753 147.615 80.706C147.286 81.6371 146.814 82.4359 146.197 83.1029C145.581 83.7698 144.833 84.2842 143.955 84.6451C143.078 85.0065 142.089 85.1872 140.99 85.1872C139.891 85.1872 138.905 85.0065 138.034 84.6451C137.163 84.2837 136.419 83.7698 135.803 83.1029C135.186 82.4359 134.713 81.6371 134.385 80.706C134.056 79.7753 133.892 78.7399 133.892 77.6004ZM136.406 77.6004C136.406 78.3926 136.509 79.1116 136.717 79.7574C136.925 80.4037 137.223 80.9491 137.612 81.3935C138 81.8385 138.479 82.1825 139.049 82.4251C139.619 82.6683 140.266 82.7898 140.99 82.7898C141.714 82.7898 142.36 82.6683 142.93 82.4251C143.5 82.182 143.982 81.8385 144.378 81.3935C144.773 80.9491 145.075 80.4032 145.282 79.7574C145.49 79.1112 145.594 78.3921 145.594 77.6004C145.594 76.8086 145.49 76.0929 145.282 75.4536C145.075 74.8149 144.773 74.2728 144.378 73.8278C143.982 73.3834 143.5 73.0393 142.93 72.7962C142.36 72.5531 141.713 72.4316 140.99 72.4316C140.266 72.4316 139.619 72.5536 139.049 72.7962C138.479 73.0393 138 73.3834 137.612 73.8278C137.223 74.2728 136.925 74.8149 136.717 75.4536C136.509 76.0929 136.406 76.8086 136.406 77.6004Z" fill="white"></path><path d="M152.994 74.6077V85.1818H150.48V69.9805H153.195L158.563 80.5546V69.9805H161.077V85.1818H158.362L152.994 74.6077H152.994Z" fill="white"></path><path d="M163.65 69.9805H168.979C170.024 69.9805 170.966 70.1546 171.804 70.5014C172.641 70.8487 173.352 71.335 173.935 71.9606C174.519 72.5858 174.967 73.3433 175.282 74.2327C175.597 75.1221 175.755 76.3043 175.755 77.388C175.755 78.4717 175.598 79.9421 175.282 80.8517C174.967 81.7618 174.519 82.5366 173.935 83.1759C173.352 83.8151 172.642 84.3084 171.804 84.6557C170.966 85.003 170.025 85.1767 168.979 85.1767H163.65V69.9805ZM168.737 82.7798C169.448 82.7798 170.081 82.6652 170.638 82.4357C171.194 82.2062 171.663 81.8767 172.045 81.4454C172.427 81.015 172.722 80.5007 172.93 79.9032C173.138 79.3057 173.241 78.2352 173.241 77.5129C173.241 76.7905 173.137 75.8861 172.93 75.2746C172.722 74.6635 172.427 74.1421 172.045 73.7112C171.663 73.2808 171.194 72.9504 170.638 72.7209C170.081 72.4919 169.448 72.3769 168.737 72.3769H166.164V82.7793H168.737V82.7798Z" fill="white"></path><path d="M188 80.665C188 81.2901 187.899 81.8773 187.698 82.4264C187.497 82.9755 187.192 83.4477 186.783 83.8438C186.374 84.2399 185.858 84.5525 185.235 84.7815C184.611 85.011 183.871 85.1255 183.013 85.1255C182.383 85.1255 181.8 85.0664 181.264 84.9481C180.727 84.8303 180.234 84.6703 179.786 84.4689C179.337 84.2676 178.931 84.0385 178.569 83.7814C178.207 83.5242 177.892 83.2637 177.624 82.9999L179.213 81.2075C179.762 81.6942 180.339 82.0692 180.942 82.333C181.545 82.5972 182.228 82.7291 182.993 82.7291C183.475 82.7291 183.877 82.6737 184.199 82.5625C184.521 82.4513 184.779 82.309 184.973 82.1354C185.168 81.9617 185.302 81.7604 185.376 81.5309C185.449 81.3014 185.486 81.0761 185.486 80.8536C185.486 80.4232 185.376 80.0689 185.154 79.7906C184.933 79.5127 184.638 79.2799 184.269 79.0922C183.9 78.9045 183.482 78.7449 183.013 78.613C182.543 78.4811 182.064 78.3455 181.575 78.2066C181.086 78.0676 180.607 77.9043 180.138 77.7166C179.668 77.5288 179.249 77.2895 178.881 76.9976C178.512 76.7056 178.217 76.341 177.996 75.9035C177.775 75.4656 177.664 74.9207 177.664 74.2674C177.664 73.6563 177.771 73.0931 177.986 72.5792C178.2 72.0653 178.512 71.6241 178.921 71.2557C179.33 70.8877 179.839 70.5991 180.449 70.3907C181.059 70.1823 181.759 70.0781 182.55 70.0781C183.636 70.0781 184.618 70.2626 185.496 70.6305C186.374 70.999 187.134 71.4678 187.778 72.0376L186.31 73.9342C185.667 73.4062 185.04 73.0312 184.431 72.8087C183.82 72.5867 183.2 72.475 182.571 72.475C181.726 72.475 181.116 72.628 180.741 72.9336C180.366 73.2396 180.178 73.6146 180.178 74.059C180.178 74.4204 180.289 74.7194 180.51 74.9555C180.732 75.192 181.026 75.3901 181.395 75.5497C181.763 75.7097 182.182 75.8486 182.652 75.9664C183.121 76.0847 183.6 76.2166 184.089 76.3625C184.578 76.5085 185.058 76.6822 185.527 76.8835C185.996 77.0853 186.415 77.3491 186.784 77.6758C187.152 78.0024 187.447 78.4089 187.668 78.8951C187.889 79.3818 188 79.9722 188 80.6668L188 80.665Z" fill="white"></path><path d="M117.375 59.9561H0V60.8004H117.375V59.9561Z" fill="url(#paint0_linear_2407_2103)"></path><path d="M40.6429 18.2366C42.1637 17.9062 43.8438 16.9727 44.6009 15.9819C45.6472 14.6307 45.9867 12.9518 46.2244 11.0994C44.5144 10.6314 43.0773 10.5099 41.2962 10.5343C38.7558 10.4357 36.2384 10.9529 33.9353 12.085C32.1546 12.996 30.5871 14.3495 29.376 15.9744C29.2334 16.1715 29.1148 16.393 28.9721 16.5897C28.8535 16.3926 28.7109 16.171 28.5683 15.9744C27.3571 14.3251 25.7902 12.996 24.009 12.085C21.7058 10.9773 19.1885 10.4357 16.6476 10.5343C14.0117 10.4606 11.3997 10.9773 9.00147 12.085C7.03062 12.996 5.27347 14.3251 3.8251 15.9744C2.51889 17.4514 1.52192 19.2236 0.904359 21.1188C0.334338 22.8173 0.0255575 24.59 0.00201416 26.3622V48.7378H8.69314V26.5837C8.6696 25.4024 8.8833 24.2206 9.33424 23.1374C9.76165 22.2264 10.3552 21.4145 11.0914 20.7499C11.8276 20.0853 12.6824 19.5681 13.6083 19.2729C15.6031 18.682 17.7161 18.682 19.6874 19.2729C20.6133 19.5681 21.4921 20.0853 22.2283 20.7499C22.9645 21.4145 23.5581 22.2269 23.9619 23.1374C24.4369 24.2206 24.6506 25.4019 24.603 26.5837V48.7378H33.2942V26.5837C33.2706 25.4024 33.4843 24.2206 33.9588 23.1374C34.3862 22.2264 34.9798 21.4145 35.7164 20.7499C36.9271 19.6666 39.0831 18.5754 40.6433 18.2366H40.6429Z" fill="#E92548"></path><path d="M49.3672 27.8819L48.9706 29.5016C48.947 29.5982 48.9004 29.671 48.8307 29.7433C48.7605 29.7916 48.6672 29.8399 48.574 29.8399C48.4807 29.8399 48.3879 29.8155 48.3177 29.7433C48.2475 29.6949 48.2009 29.5982 48.1778 29.5016L47.7812 27.8819C47.4312 26.4072 46.6851 25.0536 45.6591 23.9901C44.6332 22.9266 43.327 22.1531 41.9049 21.7903L40.3424 21.3792C40.2491 21.3548 40.179 21.3065 40.1092 21.2342C40.0626 21.1619 40.016 21.0647 40.016 20.9681C40.016 20.8714 40.0395 20.7747 40.1092 20.702C40.1559 20.6292 40.2491 20.5809 40.3424 20.5569L41.9049 20.1458C43.327 19.783 44.6332 19.0095 45.6591 17.946C46.6851 16.8825 47.4312 15.5285 47.7812 14.0543L48.1778 12.4829C48.2014 12.3862 48.248 12.3135 48.3177 12.2412C48.3879 12.1929 48.4807 12.1445 48.574 12.1445C48.6672 12.1445 48.7605 12.1689 48.8307 12.2412C48.9009 12.2896 48.9475 12.3862 48.9706 12.4829L49.3672 14.1026C49.7167 15.5773 50.4633 16.9308 51.4893 17.9943C52.5152 19.0579 53.8214 19.8313 55.2435 20.1941L56.806 20.6053C56.8993 20.6292 56.9694 20.6775 57.0392 20.7503C57.0854 20.823 57.132 20.9197 57.132 21.0164C57.132 21.1131 57.1084 21.2098 57.0392 21.2825C56.9925 21.3553 56.8993 21.4036 56.806 21.4275L55.2435 21.8387C53.8214 22.2015 52.5388 22.9505 51.4893 24.0145C50.4864 25.078 49.7403 26.4077 49.3672 27.8823V27.8819Z" fill="#E92548"></path><path d="M77.3662 48.7387C74.9204 48.788 72.4982 48.2957 70.2661 47.2622C68.4378 46.4009 66.8228 45.1699 65.4691 43.6436C64.282 42.2652 63.3556 40.6652 62.7621 38.9174C62.2156 37.3423 61.9313 35.7174 61.9073 34.0438V13.3423H69.9568V33.9452C69.9333 35.0529 70.123 36.1361 70.5508 37.1452C70.9307 38.0064 71.4767 38.7451 72.1654 39.3604C72.854 39.9757 73.6377 40.4188 74.5161 40.6896C76.3683 41.2556 78.3392 41.2556 80.1914 40.6896C81.0698 40.4188 81.8535 39.9757 82.5421 39.3604C83.2308 38.7202 83.7768 37.9327 84.1567 37.071C84.5841 36.0619 84.7982 34.9787 84.7742 33.8711V13.3418H92.8238V34.0682C92.8002 35.7174 92.4915 37.3667 91.969 38.9174C91.3754 40.6901 90.4495 42.2896 89.2619 43.6929C87.9082 45.2192 86.2697 46.4498 84.465 47.3115C82.2089 48.2961 79.7871 48.788 77.3653 48.7387H77.3662Z" fill="#E92548"></path><path d="M96.7914 0H104.841V48.7139H96.7914V0Z" fill="#E92548"></path><path d="M108.45 6.2849C108.45 5.694 108.545 5.0787 108.782 4.53709C109.02 3.99547 109.328 3.47873 109.732 3.06008C110.563 2.17397 111.703 1.68164 112.89 1.68164C114.077 1.68164 115.217 2.17397 116.048 3.03568C116.452 3.45433 116.784 3.97107 116.998 4.51268C117.212 5.0787 117.33 5.6696 117.33 6.26049C117.354 6.87579 117.235 7.49109 117.022 8.05758C116.808 8.6236 116.476 9.16522 116.048 9.58387C115.193 10.4207 114.077 10.913 112.89 10.913C111.703 10.913 110.587 10.4451 109.732 9.58387C109.305 9.14081 108.972 8.62407 108.759 8.05758C108.545 7.51597 108.426 6.90067 108.45 6.28537V6.2849ZM108.854 13.3376H116.927V48.7346H108.854V13.3372V13.3376Z" fill="#E92548"></path><path d="M120.94 13.335H129.345L137.348 36.4733L145.398 13.335H153.78L141.907 47.1812C141.243 49.2242 140.482 51.2672 139.865 53.3107C139.2 55.2801 138.298 57.126 137.158 58.8494C136.042 60.4986 134.594 61.8522 132.908 62.8369C130.771 63.9201 128.396 64.4368 126.021 64.3139V56.6834C127.137 56.6834 128.206 56.3389 129.156 55.7236C130.13 55.0585 130.961 54.1973 131.602 53.1882C132.244 52.1792 132.671 51.0466 132.861 49.8405C133.051 48.6343 132.956 47.4037 132.552 46.2467L120.94 13.3359L120.94 13.335Z" fill="#E92548"></path><path d="M170.917 13.3457C173.307 13.3213 175.672 13.7381 177.896 14.6209C179.93 15.4057 181.776 16.632 183.313 18.2259C184.851 19.8198 186.034 21.7328 186.791 23.842C187.619 26.1474 188.021 28.6241 187.997 31.0764L187.974 48.7333H180.048V44.8584C179.054 46.0599 177.801 46.992 176.381 47.5806C174.442 48.4141 172.359 48.807 170.254 48.7333C167.983 48.7577 165.759 48.316 163.653 47.4581C161.69 46.649 159.915 45.4226 158.448 43.8531C156.958 42.2348 155.799 40.3218 155.042 38.237C154.214 35.9316 153.812 33.455 153.836 31.0027C153.812 28.526 154.214 26.0732 155.065 23.7683C155.823 21.684 157.029 19.7954 158.543 18.2259C160.081 16.6808 161.926 15.4549 163.913 14.6702C166.137 13.763 168.526 13.3213 170.916 13.3457H170.917ZM180.049 31.0027C180.214 28.2805 179.315 25.5828 177.588 23.5228C175.766 21.806 173.401 20.85 170.94 20.85C168.48 20.85 166.114 21.8065 164.293 23.4984C163.417 24.5038 162.731 25.6809 162.305 26.9809C161.879 28.2561 161.69 29.6294 161.761 30.9783C161.69 32.3271 161.856 33.7004 162.305 34.9756C162.731 36.2508 163.417 37.4279 164.293 38.4337C166.114 40.15 168.48 41.107 170.94 41.107C173.401 41.107 175.766 40.1505 177.588 38.4586C179.315 36.423 180.214 33.7253 180.049 31.0031V31.0027Z" fill="#E92548"></path><path d="M49.2489 39.8373C49.2548 42.673 49.2489 48.7439 49.2489 48.7439H57.912V26.4255C57.9075 25.6389 57.9066 24.7002 57.9183 23.5715C50.3591 23.0651 49.2385 34.8637 49.2489 39.8368V39.8373Z" fill="#E92548"></path><defs><linearGradient id="paint0_linear_2407_2103" x1="6.3309" y1="60.378" x2="98.5829" y2="60.378" gradientUnits="userSpaceOnUse"><stop stop-color="#E5BA5D"></stop><stop offset="0.23" stop-color="#FCF9D2"></stop><stop offset="0.41" stop-color="#E2B854"></stop><stop offset="0.59" stop-color="#F4C96E"></stop><stop offset="0.77" stop-color="#D0A02B"></stop><stop offset="1" stop-color="#C19639"></stop></linearGradient></defs></svg>