<svg xmlns="http://www.w3.org/2000/svg" width="22" height="20" viewBox="0 0 22 20" fill="none"><path d="M12.3631 19V11.5C12.3631 11.3011 12.4422 11.1103 12.5828 10.9697C12.7235 10.829 12.9142 10.75 13.1131 10.75H16.1131C16.3121 10.75 16.5028 10.829 16.6435 10.9697C16.7841 11.1103 16.8631 11.3011 16.8631 11.5V19M12.3631 19H1.22315M12.3631 19H16.8631M16.8631 19H20.5031M19.1131 19V7.349M19.1131 7.349C18.5132 7.6951 17.8121 7.82304 17.1286 7.71113C16.4451 7.59922 15.8214 7.25435 15.3631 6.735C14.8131 7.357 14.0091 7.75 13.1131 7.75C12.6874 7.75041 12.2665 7.66 11.8785 7.48479C11.4905 7.30959 11.1444 7.05363 10.8631 6.734C10.3131 7.357 9.50915 7.75 8.61315 7.75C8.18743 7.75041 7.76651 7.66 7.37852 7.48479C6.99052 7.30959 6.64436 7.05363 6.36315 6.734C5.90507 7.25351 5.28139 7.59858 4.59789 7.71067C3.9144 7.82276 3.21317 7.69498 2.61315 7.349M19.1131 7.349C19.5117 7.11891 19.8521 6.80019 20.1077 6.41751C20.3634 6.03484 20.5277 5.59846 20.5877 5.14215C20.6477 4.68584 20.602 4.22184 20.454 3.78605C20.306 3.35026 20.0597 2.95436 19.7341 2.629L18.5441 1.44C18.2631 1.15862 17.8818 1.00035 17.4841 1H4.24115C3.8436 1.00008 3.46235 1.15798 3.18115 1.439L1.99215 2.629C1.66739 2.95474 1.42176 3.3507 1.27422 3.78637C1.12667 4.22204 1.08115 4.68577 1.14115 5.14182C1.20115 5.59786 1.36507 6.03403 1.62029 6.41671C1.8755 6.79939 2.21518 7.11835 2.61315 7.349M2.61315 19V7.349M5.61315 16H9.36315C9.56206 16 9.75283 15.921 9.89348 15.7803C10.0341 15.6397 10.1131 15.4489 10.1131 15.25V11.5C10.1131 11.3011 10.0341 11.1103 9.89348 10.9697C9.75283 10.829 9.56206 10.75 9.36315 10.75H5.61315C5.41424 10.75 5.22347 10.829 5.08282 10.9697C4.94217 11.1103 4.86315 11.3011 4.86315 11.5V15.25C4.86315 15.664 5.19915 16 5.61315 16Z" stroke="#E92548" stroke-width="1.1" stroke-linecap="round" stroke-linejoin="round"></path></svg>