<svg xmlns="http://www.w3.org/2000/svg" width="44" height="43" viewBox="0 0 44 43" fill="none"><path fill-rule="evenodd" clip-rule="evenodd" d="M3.37701 1.6885C3.37701 0.755969 2.62104 0 1.6885 0C0.755969 0 0 0.755969 0 1.6885C0 12.9232 8.44023 22.1866 19.3258 23.4837L14.0224 28.616C13.4556 29.1645 13.3441 30.0324 13.7537 30.7064L20.7329 42.1882C21.0392 42.6921 21.5861 42.9997 22.1758 42.9997C22.7654 42.9997 23.3123 42.6921 23.6186 42.1882L30.5978 30.7064C31.0075 30.0324 30.8959 29.1645 30.3291 28.616L24.973 23.4327C35.6657 21.9601 43.9011 12.786 43.9011 1.6885C43.9011 0.755969 43.1451 0 42.2126 0C41.2801 0 40.5241 0.755969 40.5241 1.6885C40.5241 11.9464 32.2084 20.262 21.9505 20.262C11.6927 20.262 3.37701 11.9464 3.37701 1.6885ZM22.1758 38.0604L17.34 30.1048L22.1758 25.4251L27.0115 30.1048L22.1758 38.0604Z" fill="url(#paint0_linear_2566_1879)"></path><defs><linearGradient id="paint0_linear_2566_1879" x1="22" y1="25.5" x2="-60" y2="-52" gradientUnits="userSpaceOnUse"><stop stop-color="white"></stop><stop offset="0.0348" stop-color="#F0F0F0"></stop><stop offset="0.1647" stop-color="#BDBDBD"></stop><stop offset="0.5719" stop-color="#A0A0A0"></stop><stop offset="0.6237" stop-color="#BEBEBE"></stop><stop offset="0.6758" stop-color="#E5E5E5"></stop><stop offset="0.7067" stop-color="white"></stop><stop offset="0.8918" stop-color="#D5D5D5"></stop><stop offset="1" stop-color="#C2C2C2"></stop></linearGradient></defs></svg>