<svg xmlns="http://www.w3.org/2000/svg" width="24" height="52" viewBox="0 0 24 52" fill="none"><path fill-rule="evenodd" clip-rule="evenodd" d="M4.78622 0.24987H6.75023H17.2502H19.2142L19.4796 2.19587L21.7296 18.6959L21.7117 18.6983C23.151 20.6776 24 23.1139 24 25.7484C24 28.4377 23.1154 30.9203 21.6213 32.9212L19.4829 50.0284L19.2365 51.9994H17.2502H6.75023H4.76397L4.5176 50.0284L2.37929 32.9219C0.884837 30.9209 0 28.438 0 25.7484C0 23.1138 0.849015 20.6776 2.28837 18.6983L2.27086 18.6959L4.52086 2.19587L4.78622 0.24987ZM7.36037 14.6782C8.78765 14.0793 10.3552 13.7484 12 13.7484C13.645 13.7484 15.2127 14.0794 16.6401 14.6784L15.2862 4.74987H8.71423L7.36037 14.6782ZM7.40365 36.8366L8.73649 47.4994H15.264L16.5968 36.8364C15.181 37.4241 13.6284 37.7484 12 37.7484C10.3718 37.7484 8.81932 37.4241 7.40365 36.8366ZM19.5 25.7484C19.5 29.8905 16.1421 33.2484 12 33.2484C7.85786 33.2484 4.5 29.8905 4.5 25.7484C4.5 21.6063 7.85786 18.2484 12 18.2484C16.1421 18.2484 19.5 21.6063 19.5 25.7484Z" fill="url(#paint0_linear_2566_1868)"></path><defs><linearGradient id="paint0_linear_2566_1868" x1="1.29447" y1="22.1418" x2="26.0215" y2="58.6515" gradientUnits="userSpaceOnUse"><stop stop-color="#E5BA5D"></stop><stop offset="0.23" stop-color="#FFFFD0"></stop><stop offset="0.41" stop-color="#E2B854"></stop><stop offset="0.59" stop-color="#F4C96C"></stop><stop offset="0.77" stop-color="#D09F26"></stop><stop offset="1" stop-color="#C2973B"></stop></linearGradient></defs></svg>